<mxfile host="app.diagrams.net" modified="2022-02-16T05:48:37.817Z" agent="5.0 (X11)" etag="oAwMlADNALj0O4i3Rgtz" version="16.5.6" type="github">
  <diagram id="dPE0rSnDttO2cPsKpZio" name="Page-1">
    <mxGraphModel dx="2396" dy="753" grid="1" gridSize="10" guides="1" tooltips="1" connect="1" arrows="1" fold="1" page="1" pageScale="1" pageWidth="1100" pageHeight="1700" math="0" shadow="0">
      <root>
        <mxCell id="0" />
        <mxCell id="1" parent="0" />
        <mxCell id="TzHmWGtNkxeAWhN5gdSA-5" value="" style="edgeStyle=orthogonalEdgeStyle;rounded=0;orthogonalLoop=1;jettySize=auto;html=1;" parent="1" source="TzHmWGtNkxeAWhN5gdSA-1" target="TzHmWGtNkxeAWhN5gdSA-4" edge="1">
          <mxGeometry relative="1" as="geometry" />
        </mxCell>
        <mxCell id="rAjfL-ad3TDa2JF80mlk-13" value="" style="edgeStyle=orthogonalEdgeStyle;rounded=0;orthogonalLoop=1;jettySize=auto;html=1;" edge="1" parent="1" source="TzHmWGtNkxeAWhN5gdSA-1" target="rAjfL-ad3TDa2JF80mlk-12">
          <mxGeometry relative="1" as="geometry" />
        </mxCell>
        <mxCell id="rAjfL-ad3TDa2JF80mlk-15" value="" style="edgeStyle=orthogonalEdgeStyle;rounded=0;orthogonalLoop=1;jettySize=auto;html=1;" edge="1" parent="1" source="TzHmWGtNkxeAWhN5gdSA-1" target="rAjfL-ad3TDa2JF80mlk-14">
          <mxGeometry relative="1" as="geometry" />
        </mxCell>
        <mxCell id="rAjfL-ad3TDa2JF80mlk-17" value="" style="edgeStyle=orthogonalEdgeStyle;rounded=0;orthogonalLoop=1;jettySize=auto;html=1;" edge="1" parent="1" source="TzHmWGtNkxeAWhN5gdSA-1" target="rAjfL-ad3TDa2JF80mlk-16">
          <mxGeometry relative="1" as="geometry" />
        </mxCell>
        <mxCell id="rAjfL-ad3TDa2JF80mlk-19" value="" style="edgeStyle=orthogonalEdgeStyle;rounded=0;orthogonalLoop=1;jettySize=auto;html=1;" edge="1" parent="1" source="TzHmWGtNkxeAWhN5gdSA-1" target="rAjfL-ad3TDa2JF80mlk-18">
          <mxGeometry relative="1" as="geometry" />
        </mxCell>
        <mxCell id="rAjfL-ad3TDa2JF80mlk-21" value="" style="edgeStyle=orthogonalEdgeStyle;rounded=0;orthogonalLoop=1;jettySize=auto;html=1;" edge="1" parent="1" source="TzHmWGtNkxeAWhN5gdSA-1" target="rAjfL-ad3TDa2JF80mlk-20">
          <mxGeometry relative="1" as="geometry" />
        </mxCell>
        <mxCell id="rAjfL-ad3TDa2JF80mlk-23" value="" style="edgeStyle=orthogonalEdgeStyle;rounded=0;orthogonalLoop=1;jettySize=auto;html=1;" edge="1" parent="1" source="TzHmWGtNkxeAWhN5gdSA-1" target="rAjfL-ad3TDa2JF80mlk-22">
          <mxGeometry relative="1" as="geometry" />
        </mxCell>
        <mxCell id="rAjfL-ad3TDa2JF80mlk-25" value="" style="edgeStyle=orthogonalEdgeStyle;rounded=0;orthogonalLoop=1;jettySize=auto;html=1;" edge="1" parent="1" source="TzHmWGtNkxeAWhN5gdSA-1" target="rAjfL-ad3TDa2JF80mlk-24">
          <mxGeometry relative="1" as="geometry" />
        </mxCell>
        <mxCell id="rAjfL-ad3TDa2JF80mlk-27" value="" style="edgeStyle=orthogonalEdgeStyle;rounded=0;orthogonalLoop=1;jettySize=auto;html=1;" edge="1" parent="1" source="TzHmWGtNkxeAWhN5gdSA-1" target="rAjfL-ad3TDa2JF80mlk-26">
          <mxGeometry relative="1" as="geometry" />
        </mxCell>
        <mxCell id="rAjfL-ad3TDa2JF80mlk-31" value="" style="edgeStyle=orthogonalEdgeStyle;rounded=0;orthogonalLoop=1;jettySize=auto;html=1;" edge="1" parent="1" source="TzHmWGtNkxeAWhN5gdSA-1" target="rAjfL-ad3TDa2JF80mlk-30">
          <mxGeometry relative="1" as="geometry">
            <Array as="points">
              <mxPoint x="470" y="180" />
            </Array>
          </mxGeometry>
        </mxCell>
        <mxCell id="rAjfL-ad3TDa2JF80mlk-33" value="" style="edgeStyle=orthogonalEdgeStyle;rounded=0;orthogonalLoop=1;jettySize=auto;html=1;" edge="1" parent="1" source="TzHmWGtNkxeAWhN5gdSA-1" target="rAjfL-ad3TDa2JF80mlk-32">
          <mxGeometry relative="1" as="geometry">
            <Array as="points">
              <mxPoint x="630" y="180" />
            </Array>
          </mxGeometry>
        </mxCell>
        <mxCell id="rAjfL-ad3TDa2JF80mlk-35" value="" style="edgeStyle=orthogonalEdgeStyle;rounded=0;orthogonalLoop=1;jettySize=auto;html=1;" edge="1" parent="1" source="TzHmWGtNkxeAWhN5gdSA-1" target="rAjfL-ad3TDa2JF80mlk-34">
          <mxGeometry relative="1" as="geometry" />
        </mxCell>
        <mxCell id="rAjfL-ad3TDa2JF80mlk-37" value="" style="edgeStyle=orthogonalEdgeStyle;rounded=0;orthogonalLoop=1;jettySize=auto;html=1;" edge="1" parent="1" source="TzHmWGtNkxeAWhN5gdSA-1" target="rAjfL-ad3TDa2JF80mlk-36">
          <mxGeometry relative="1" as="geometry" />
        </mxCell>
        <mxCell id="rAjfL-ad3TDa2JF80mlk-39" value="" style="edgeStyle=orthogonalEdgeStyle;rounded=0;orthogonalLoop=1;jettySize=auto;html=1;" edge="1" parent="1" source="TzHmWGtNkxeAWhN5gdSA-1" target="rAjfL-ad3TDa2JF80mlk-38">
          <mxGeometry relative="1" as="geometry">
            <Array as="points">
              <mxPoint x="150" y="180" />
              <mxPoint x="150" y="330" />
              <mxPoint x="68" y="330" />
            </Array>
          </mxGeometry>
        </mxCell>
        <mxCell id="rAjfL-ad3TDa2JF80mlk-41" value="" style="edgeStyle=orthogonalEdgeStyle;rounded=0;orthogonalLoop=1;jettySize=auto;html=1;" edge="1" parent="1" source="TzHmWGtNkxeAWhN5gdSA-1" target="rAjfL-ad3TDa2JF80mlk-40">
          <mxGeometry relative="1" as="geometry">
            <Array as="points">
              <mxPoint x="150" y="180" />
              <mxPoint x="150" y="330" />
              <mxPoint x="228" y="330" />
            </Array>
          </mxGeometry>
        </mxCell>
        <mxCell id="rAjfL-ad3TDa2JF80mlk-43" value="" style="edgeStyle=orthogonalEdgeStyle;rounded=0;orthogonalLoop=1;jettySize=auto;html=1;" edge="1" parent="1" source="TzHmWGtNkxeAWhN5gdSA-1" target="rAjfL-ad3TDa2JF80mlk-42">
          <mxGeometry relative="1" as="geometry">
            <Array as="points">
              <mxPoint x="310" y="180" />
              <mxPoint x="310" y="330" />
              <mxPoint x="393" y="330" />
            </Array>
          </mxGeometry>
        </mxCell>
        <mxCell id="rAjfL-ad3TDa2JF80mlk-45" value="" style="edgeStyle=orthogonalEdgeStyle;rounded=0;orthogonalLoop=1;jettySize=auto;html=1;" edge="1" parent="1" source="TzHmWGtNkxeAWhN5gdSA-1" target="rAjfL-ad3TDa2JF80mlk-44">
          <mxGeometry relative="1" as="geometry">
            <Array as="points">
              <mxPoint x="470" y="180" />
              <mxPoint x="470" y="330" />
              <mxPoint x="553" y="330" />
            </Array>
          </mxGeometry>
        </mxCell>
        <mxCell id="rAjfL-ad3TDa2JF80mlk-47" value="" style="edgeStyle=orthogonalEdgeStyle;rounded=0;orthogonalLoop=1;jettySize=auto;html=1;" edge="1" parent="1" source="TzHmWGtNkxeAWhN5gdSA-1" target="rAjfL-ad3TDa2JF80mlk-46">
          <mxGeometry relative="1" as="geometry">
            <Array as="points">
              <mxPoint x="630" y="180" />
              <mxPoint x="630" y="330" />
              <mxPoint x="713" y="330" />
            </Array>
          </mxGeometry>
        </mxCell>
        <mxCell id="rAjfL-ad3TDa2JF80mlk-49" value="" style="edgeStyle=orthogonalEdgeStyle;rounded=0;orthogonalLoop=1;jettySize=auto;html=1;" edge="1" parent="1" source="TzHmWGtNkxeAWhN5gdSA-1" target="rAjfL-ad3TDa2JF80mlk-48">
          <mxGeometry relative="1" as="geometry">
            <Array as="points">
              <mxPoint x="950" y="180" />
              <mxPoint x="950" y="330" />
              <mxPoint x="873" y="330" />
            </Array>
          </mxGeometry>
        </mxCell>
        <mxCell id="rAjfL-ad3TDa2JF80mlk-51" value="" style="edgeStyle=orthogonalEdgeStyle;rounded=0;orthogonalLoop=1;jettySize=auto;html=1;" edge="1" parent="1" source="TzHmWGtNkxeAWhN5gdSA-1" target="rAjfL-ad3TDa2JF80mlk-50">
          <mxGeometry relative="1" as="geometry">
            <Array as="points">
              <mxPoint x="950" y="180" />
              <mxPoint x="950" y="330" />
              <mxPoint x="1033" y="330" />
            </Array>
          </mxGeometry>
        </mxCell>
        <mxCell id="rAjfL-ad3TDa2JF80mlk-53" value="" style="edgeStyle=orthogonalEdgeStyle;rounded=0;orthogonalLoop=1;jettySize=auto;html=1;" edge="1" parent="1" source="TzHmWGtNkxeAWhN5gdSA-1" target="rAjfL-ad3TDa2JF80mlk-52">
          <mxGeometry relative="1" as="geometry">
            <Array as="points">
              <mxPoint x="-10" y="180" />
              <mxPoint x="-10" y="440" />
              <mxPoint x="150" y="440" />
            </Array>
          </mxGeometry>
        </mxCell>
        <mxCell id="rAjfL-ad3TDa2JF80mlk-55" value="" style="edgeStyle=orthogonalEdgeStyle;rounded=0;orthogonalLoop=1;jettySize=auto;html=1;" edge="1" parent="1" source="TzHmWGtNkxeAWhN5gdSA-1" target="rAjfL-ad3TDa2JF80mlk-54">
          <mxGeometry relative="1" as="geometry">
            <Array as="points">
              <mxPoint x="-10" y="180" />
              <mxPoint x="-10" y="440" />
              <mxPoint x="310" y="440" />
            </Array>
          </mxGeometry>
        </mxCell>
        <mxCell id="rAjfL-ad3TDa2JF80mlk-57" value="" style="edgeStyle=orthogonalEdgeStyle;rounded=0;orthogonalLoop=1;jettySize=auto;html=1;" edge="1" parent="1" source="TzHmWGtNkxeAWhN5gdSA-1" target="rAjfL-ad3TDa2JF80mlk-56">
          <mxGeometry relative="1" as="geometry">
            <Array as="points">
              <mxPoint x="1110" y="180" />
              <mxPoint x="1110" y="440" />
              <mxPoint x="950" y="440" />
            </Array>
          </mxGeometry>
        </mxCell>
        <mxCell id="rAjfL-ad3TDa2JF80mlk-59" value="" style="edgeStyle=orthogonalEdgeStyle;rounded=0;orthogonalLoop=1;jettySize=auto;html=1;" edge="1" parent="1" source="TzHmWGtNkxeAWhN5gdSA-1" target="rAjfL-ad3TDa2JF80mlk-58">
          <mxGeometry relative="1" as="geometry">
            <Array as="points">
              <mxPoint x="1110" y="180" />
              <mxPoint x="1110" y="440" />
              <mxPoint x="790" y="440" />
            </Array>
          </mxGeometry>
        </mxCell>
        <mxCell id="rAjfL-ad3TDa2JF80mlk-61" value="" style="edgeStyle=orthogonalEdgeStyle;rounded=0;orthogonalLoop=1;jettySize=auto;html=1;" edge="1" parent="1" source="TzHmWGtNkxeAWhN5gdSA-1" target="rAjfL-ad3TDa2JF80mlk-60">
          <mxGeometry relative="1" as="geometry">
            <Array as="points">
              <mxPoint x="-10" y="180" />
              <mxPoint x="-10" y="440" />
              <mxPoint x="470" y="440" />
            </Array>
          </mxGeometry>
        </mxCell>
        <mxCell id="rAjfL-ad3TDa2JF80mlk-63" value="" style="edgeStyle=orthogonalEdgeStyle;rounded=0;orthogonalLoop=1;jettySize=auto;html=1;" edge="1" parent="1" source="TzHmWGtNkxeAWhN5gdSA-1" target="rAjfL-ad3TDa2JF80mlk-62">
          <mxGeometry relative="1" as="geometry">
            <Array as="points">
              <mxPoint x="1110" y="180" />
              <mxPoint x="1110" y="440" />
              <mxPoint x="630" y="440" />
            </Array>
          </mxGeometry>
        </mxCell>
        <mxCell id="TzHmWGtNkxeAWhN5gdSA-1" value="icmp (5)" style="rounded=1;whiteSpace=wrap;html=1;fillColor=#dae8fc;strokeColor=#6c8ebf;" parent="1" vertex="1">
          <mxGeometry x="493" y="150" width="120" height="60" as="geometry" />
        </mxCell>
        <mxCell id="TzHmWGtNkxeAWhN5gdSA-4" value="icmpInMsgs (1)" style="whiteSpace=wrap;html=1;rounded=1;fillColor=#dae8fc;strokeColor=#6c8ebf;" parent="1" vertex="1">
          <mxGeometry x="8" y="250" width="120" height="60" as="geometry" />
        </mxCell>
        <mxCell id="rAjfL-ad3TDa2JF80mlk-3" value="" style="edgeStyle=orthogonalEdgeStyle;rounded=0;orthogonalLoop=1;jettySize=auto;html=1;" edge="1" parent="1" source="rAjfL-ad3TDa2JF80mlk-1" target="TzHmWGtNkxeAWhN5gdSA-1">
          <mxGeometry relative="1" as="geometry" />
        </mxCell>
        <mxCell id="rAjfL-ad3TDa2JF80mlk-1" value="1.3.6.1.2.1" style="whiteSpace=wrap;html=1;fillColor=#dae8fc;strokeColor=#6c8ebf;rounded=1;" vertex="1" parent="1">
          <mxGeometry x="493" y="60" width="120" height="60" as="geometry" />
        </mxCell>
        <mxCell id="rAjfL-ad3TDa2JF80mlk-12" value="icmpInErrors (2)" style="whiteSpace=wrap;html=1;fillColor=#dae8fc;strokeColor=#6c8ebf;rounded=1;" vertex="1" parent="1">
          <mxGeometry x="168" y="250" width="120" height="60" as="geometry" />
        </mxCell>
        <mxCell id="rAjfL-ad3TDa2JF80mlk-14" value="&lt;font style=&quot;font-size: 11px&quot;&gt;icmpInDestUnreachs&lt;/font&gt; (3)" style="rounded=1;whiteSpace=wrap;html=1;fillColor=#dae8fc;strokeColor=#6c8ebf;" vertex="1" parent="1">
          <mxGeometry x="333" y="250" width="120" height="60" as="geometry" />
        </mxCell>
        <mxCell id="rAjfL-ad3TDa2JF80mlk-16" value="icmpInTimeExcds (4)" style="whiteSpace=wrap;html=1;fillColor=#dae8fc;strokeColor=#6c8ebf;rounded=1;" vertex="1" parent="1">
          <mxGeometry x="493" y="250" width="120" height="60" as="geometry" />
        </mxCell>
        <mxCell id="rAjfL-ad3TDa2JF80mlk-18" value="icmpInParmProbs (5)" style="whiteSpace=wrap;html=1;fillColor=#dae8fc;strokeColor=#6c8ebf;rounded=1;" vertex="1" parent="1">
          <mxGeometry x="653" y="250" width="120" height="60" as="geometry" />
        </mxCell>
        <mxCell id="rAjfL-ad3TDa2JF80mlk-20" value="icmpInSrcQuenchs (6)" style="whiteSpace=wrap;html=1;fillColor=#dae8fc;strokeColor=#6c8ebf;rounded=1;" vertex="1" parent="1">
          <mxGeometry x="813" y="250" width="120" height="60" as="geometry" />
        </mxCell>
        <mxCell id="rAjfL-ad3TDa2JF80mlk-22" value="icmpInRedirects (7)" style="whiteSpace=wrap;html=1;fillColor=#dae8fc;strokeColor=#6c8ebf;rounded=1;" vertex="1" parent="1">
          <mxGeometry x="973" y="250" width="120" height="60" as="geometry" />
        </mxCell>
        <mxCell id="rAjfL-ad3TDa2JF80mlk-24" value="&lt;div&gt;icmpInEchos (8)&lt;/div&gt;" style="whiteSpace=wrap;html=1;fillColor=#dae8fc;strokeColor=#6c8ebf;rounded=1;" vertex="1" parent="1">
          <mxGeometry x="90" y="360" width="120" height="60" as="geometry" />
        </mxCell>
        <mxCell id="rAjfL-ad3TDa2JF80mlk-26" value="icmpInEchoReps (9)" style="whiteSpace=wrap;html=1;fillColor=#dae8fc;strokeColor=#6c8ebf;rounded=1;" vertex="1" parent="1">
          <mxGeometry x="250" y="360" width="120" height="60" as="geometry" />
        </mxCell>
        <mxCell id="rAjfL-ad3TDa2JF80mlk-30" value="icmpInTimestamps (10)" style="whiteSpace=wrap;html=1;fillColor=#dae8fc;strokeColor=#6c8ebf;rounded=1;" vertex="1" parent="1">
          <mxGeometry x="410" y="360" width="120" height="60" as="geometry" />
        </mxCell>
        <mxCell id="rAjfL-ad3TDa2JF80mlk-32" value="&lt;font style=&quot;font-size: 10px&quot;&gt;icmpInTimestampReps&lt;/font&gt; (11)" style="whiteSpace=wrap;html=1;fillColor=#dae8fc;strokeColor=#6c8ebf;rounded=1;" vertex="1" parent="1">
          <mxGeometry x="570" y="360" width="120" height="60" as="geometry" />
        </mxCell>
        <mxCell id="rAjfL-ad3TDa2JF80mlk-34" value="icmpInAddrMasks (12)" style="whiteSpace=wrap;html=1;fillColor=#dae8fc;strokeColor=#6c8ebf;rounded=1;" vertex="1" parent="1">
          <mxGeometry x="730" y="360" width="120" height="60" as="geometry" />
        </mxCell>
        <mxCell id="rAjfL-ad3TDa2JF80mlk-36" value="&lt;font style=&quot;font-size: 10px&quot;&gt;icmpInAddrMaskReps&lt;/font&gt; (13)" style="whiteSpace=wrap;html=1;fillColor=#dae8fc;strokeColor=#6c8ebf;rounded=1;" vertex="1" parent="1">
          <mxGeometry x="890" y="360" width="120" height="60" as="geometry" />
        </mxCell>
        <mxCell id="rAjfL-ad3TDa2JF80mlk-38" value="icmpOutMsgs (14)" style="rounded=1;whiteSpace=wrap;html=1;fillColor=#dae8fc;strokeColor=#6c8ebf;" vertex="1" parent="1">
          <mxGeometry x="8" y="470" width="120" height="60" as="geometry" />
        </mxCell>
        <mxCell id="rAjfL-ad3TDa2JF80mlk-40" value="icmpOutErrors (15)" style="whiteSpace=wrap;html=1;fillColor=#dae8fc;strokeColor=#6c8ebf;rounded=1;" vertex="1" parent="1">
          <mxGeometry x="168" y="470" width="120" height="60" as="geometry" />
        </mxCell>
        <mxCell id="rAjfL-ad3TDa2JF80mlk-42" value="&lt;font style=&quot;font-size: 10px&quot;&gt;icmpOutDestUnreachs&lt;/font&gt; (16)" style="whiteSpace=wrap;html=1;fillColor=#dae8fc;strokeColor=#6c8ebf;rounded=1;" vertex="1" parent="1">
          <mxGeometry x="333" y="470" width="120" height="60" as="geometry" />
        </mxCell>
        <mxCell id="rAjfL-ad3TDa2JF80mlk-44" value="&lt;font style=&quot;font-size: 11px&quot;&gt;icmpOutTimeExcds&lt;/font&gt; (17)" style="whiteSpace=wrap;html=1;fillColor=#dae8fc;strokeColor=#6c8ebf;rounded=1;" vertex="1" parent="1">
          <mxGeometry x="493" y="470" width="120" height="60" as="geometry" />
        </mxCell>
        <mxCell id="rAjfL-ad3TDa2JF80mlk-46" value="&lt;font style=&quot;font-size: 11px&quot;&gt;icmpOutParmProbs&lt;/font&gt; (18)" style="whiteSpace=wrap;html=1;fillColor=#dae8fc;strokeColor=#6c8ebf;rounded=1;" vertex="1" parent="1">
          <mxGeometry x="653" y="470" width="120" height="60" as="geometry" />
        </mxCell>
        <mxCell id="rAjfL-ad3TDa2JF80mlk-48" value="&lt;font style=&quot;font-size: 11px&quot;&gt;icmpOutSrcQuenchs&lt;/font&gt; (19)" style="whiteSpace=wrap;html=1;fillColor=#dae8fc;strokeColor=#6c8ebf;rounded=1;" vertex="1" parent="1">
          <mxGeometry x="813" y="470" width="120" height="60" as="geometry" />
        </mxCell>
        <mxCell id="rAjfL-ad3TDa2JF80mlk-50" value="icmpOutRedirects (20)" style="whiteSpace=wrap;html=1;fillColor=#dae8fc;strokeColor=#6c8ebf;rounded=1;" vertex="1" parent="1">
          <mxGeometry x="973" y="470" width="120" height="60" as="geometry" />
        </mxCell>
        <mxCell id="rAjfL-ad3TDa2JF80mlk-52" value="icmpOutEchos (21)" style="whiteSpace=wrap;html=1;fillColor=#dae8fc;strokeColor=#6c8ebf;rounded=1;" vertex="1" parent="1">
          <mxGeometry x="90" y="580" width="120" height="60" as="geometry" />
        </mxCell>
        <mxCell id="rAjfL-ad3TDa2JF80mlk-54" value="icmpOutEchoReps (22)" style="whiteSpace=wrap;html=1;fillColor=#dae8fc;strokeColor=#6c8ebf;rounded=1;" vertex="1" parent="1">
          <mxGeometry x="250" y="580" width="120" height="60" as="geometry" />
        </mxCell>
        <mxCell id="rAjfL-ad3TDa2JF80mlk-56" value="&lt;font style=&quot;font-size: 10px&quot;&gt;icmpOutAddrMaskReps&lt;/font&gt; (26)" style="whiteSpace=wrap;html=1;fillColor=#dae8fc;strokeColor=#6c8ebf;rounded=1;" vertex="1" parent="1">
          <mxGeometry x="890" y="580" width="120" height="60" as="geometry" />
        </mxCell>
        <mxCell id="rAjfL-ad3TDa2JF80mlk-58" value="&lt;font style=&quot;font-size: 11px&quot;&gt;icmpOutAddrMasks&lt;/font&gt; (25)" style="whiteSpace=wrap;html=1;fillColor=#dae8fc;strokeColor=#6c8ebf;rounded=1;" vertex="1" parent="1">
          <mxGeometry x="730" y="580" width="120" height="60" as="geometry" />
        </mxCell>
        <mxCell id="rAjfL-ad3TDa2JF80mlk-60" value="&lt;font style=&quot;font-size: 11px&quot;&gt;icmpOutTimestamps&lt;/font&gt; (23)" style="whiteSpace=wrap;html=1;fillColor=#dae8fc;strokeColor=#6c8ebf;rounded=1;" vertex="1" parent="1">
          <mxGeometry x="410" y="580" width="120" height="60" as="geometry" />
        </mxCell>
        <mxCell id="rAjfL-ad3TDa2JF80mlk-62" value="&lt;font style=&quot;font-size: 9px&quot;&gt;icmpOutTimestampReps&lt;/font&gt; (24)" style="whiteSpace=wrap;html=1;fillColor=#dae8fc;strokeColor=#6c8ebf;rounded=1;" vertex="1" parent="1">
          <mxGeometry x="570" y="580" width="120" height="60" as="geometry" />
        </mxCell>
      </root>
    </mxGraphModel>
  </diagram>
</mxfile>
